<?xml version="1.0" encoding="iso-8859-1"?>
<!-- Uploaded to: SVG Repo, www.svgrepo.com, Generator: SVG Repo Mixer Tools -->
<svg fill="#fff" height="800px" width="800px" version="1.1" id="Capa_1" xmlns="http://www.w3.org/2000/svg" xmlns:xlink="http://www.w3.org/1999/xlink" 
	 viewBox="0 0 489.985 489.985" xml:space="preserve">
<g>
	<path d="M447.645,154.542c-3.1-4.2-9.4-14.6-22-17.8c-12.5-3.1-34.7,7-38.7,31.4c-7.1,31.5-36.6,24.1-39.7,23
		c-20.9-8.4-37.6-32.4-49.1-50.2c-3.1-5.2-10.5-17.8-26.1-17.8c-9.7,0-181.3,80.9-240.5,128.6c-12.8,10.3-30.4,27.3-31.5,52.4
		c-1,24.1,14.6,48.1,37.6,57.5c13.6,5.2,28.2,5.2,39.7,5.2c0,0,349.3,0,365,0c37.7-3.3,45.8-40.8,46-53.3
		C496.845,251.842,470.645,193.242,447.645,154.542z M447.645,304.142c0,27-19.7,22-28.5,22h-343.8c-17.8,0-32,0-35.6-20.9
		c1-7.3,6.3-14.6,16.7-23c18.4-14.5,37.7-26.8,57.7-38l16.6,22.1c6.3,9.4,18.8,11.5,28.2,4.2c9.4-6.3,11.5-18.8,4.2-28.2l-13.1-16.9
		c8.4-4.2,16.8-8.2,25.4-12.3l14.8,19.8c6.3,9.4,18.8,11.5,28.2,4.2c9.4-6.3,11.5-18.8,4.2-28.2l-9.9-13.2
		c18.3-8.7,36.6-17.8,54.9-28.4c15.7,24.1,36.6,50.2,63.8,59.6c44.6,15.1,78.6-12.7,90.1-38.9
		C438.245,220.442,452.845,262.342,447.645,304.142z"/>
</g>
</svg>